<?xml version="1.0" encoding="utf-8"?>
<!-- Generator: Adobe Illustrator 15.1.0, SVG Export Plug-In . SVG Version: 6.00 Build 0)  -->
<!DOCTYPE svg PUBLIC "-//W3C//DTD SVG 1.1//EN" "http://www.w3.org/Graphics/SVG/1.1/DTD/svg11.dtd">
<svg version="1.1" id="Layer_3" xmlns="http://www.w3.org/2000/svg" xmlns:xlink="http://www.w3.org/1999/xlink" x="0px" y="0px"
	 width="558px" height="558.333px" viewBox="0 0 558 558.333" enable-background="new 0 0 558 558.333" xml:space="preserve">
<radialGradient id="SVGID_1_" cx="142.501" cy="196.833" r="363.0558" gradientTransform="matrix(1 0 0 1 26.52 -9.3071)" gradientUnits="userSpaceOnUse">
	<stop  offset="0" style="stop-color:#FFFFFF"/>
	<stop  offset="0.5" style="stop-color:#4D6998"/>
	<stop  offset="1" style="stop-color:#1D1D1B"/>
</radialGradient>
<ellipse fill="url(#SVGID_1_)" cx="279.501" cy="281.832" rx="276.48" ry="145.439"/>
<ellipse fill="#6682BA" cx="279.501" cy="291.833" rx="265.68" ry="134.641"/>
<g>
	<path fill="#FFFFFF" d="M333.319,335.35c0,0,13.18-67.824,13.18-67.825c2.973-15.309,0.5-26.729-7.351-33.943
		c-7.603-6.982-20.511-10.376-39.461-10.376h-22.822l6.532-33.606c0.246-1.267-0.088-2.577-0.907-3.572
		c-0.821-0.995-2.044-1.572-3.334-1.572h-31.5c-2.068,0-3.846,1.465-4.241,3.496l-13.995,72.006
		c-1.273-8.102-4.408-15.068-9.427-20.813c-9.239-10.576-23.854-15.938-43.441-15.938h-61.055c-2.068,0-3.846,1.465-4.24,3.496
		L82.93,372.452c-0.246,1.267,0.086,2.576,0.907,3.571c0.82,0.995,2.043,1.572,3.333,1.572h31.75c2.068,0,3.846-1.466,4.24-3.495
		l6.852-35.255h23.634c12.404,0,22.82-1.344,30.957-3.993c8.318-2.704,15.972-7.291,22.721-13.607
		c5.451-5.01,9.957-10.617,13.424-16.668l-5.661,29.125c-0.246,1.267,0.086,2.576,0.907,3.571s2.043,1.572,3.333,1.572h31.5
		c2.068,0,3.846-1.466,4.241-3.495l15.547-80.004h21.614c9.21,0,11.906,1.834,12.639,2.623c0.667,0.719,2.052,3.254,0.499,11.245
		l-12.531,64.488c-0.246,1.267,0.087,2.576,0.908,3.571c0.82,0.995,2.043,1.572,3.333,1.572h32
		C331.146,338.845,332.924,337.379,333.319,335.35z M187.281,279.31c-1.979,10.167-5.707,17.419-11.083,21.558
		c-5.461,4.205-14.198,6.337-25.966,6.337h-14.072l10.176-52.36h18.192c13.366,0,18.751,2.857,20.913,5.253
		C188.439,263.422,189.075,270.066,187.281,279.31z"/>
	<path fill="#FFFFFF" d="M468.025,239.145c-9.239-10.576-23.855-15.938-43.44-15.938h-61.056c-2.068,0-3.846,1.465-4.24,3.496
		l-28.328,145.75c-0.246,1.267,0.087,2.576,0.907,3.571c0.821,0.995,2.043,1.572,3.334,1.572h31.75c2.067,0,3.846-1.466,4.239-3.495
		l6.853-35.255h23.634c12.404,0,22.82-1.344,30.957-3.993c8.318-2.704,15.973-7.291,22.721-13.607
		c5.628-5.173,10.261-10.979,13.77-17.257c3.503-6.27,6.021-13.269,7.485-20.801C480.221,264.617,477.332,249.799,468.025,239.145z
		 M435.097,279.31c-1.979,10.167-5.707,17.419-11.082,21.558c-5.462,4.205-14.198,6.337-25.967,6.337h-14.072l10.177-52.36h18.192
		c13.366,0,18.751,2.857,20.913,5.253C436.255,263.422,436.891,270.066,435.097,279.31z"/>
</g>
<g>
	<path fill="#00000E" d="M164.529,250.526c12.062,0,20.102,2.227,24.121,6.68c4.016,4.453,4.973,12.098,2.871,22.93
		c-2.195,11.281-6.422,19.333-12.688,24.156c-6.266,4.823-15.801,7.234-28.602,7.234H130.92l11.855-61H164.529z M87.17,373.276
		h31.75l7.531-38.75h27.195c12,0,21.871-1.258,29.621-3.782c7.75-2.519,14.793-6.746,21.133-12.68
		c5.32-4.891,9.625-10.284,12.922-16.183c3.293-5.895,5.633-12.402,7.016-19.519c3.359-17.277,0.824-30.734-7.598-40.375
		s-21.82-14.461-40.188-14.461h-61.055L87.17,373.276z"/>
	<path fill="#00000E" d="M247.656,188.776h31.5l-7.531,38.75h28.062c17.656,0,29.836,3.082,36.539,9.238
		c6.703,6.16,8.711,16.141,6.031,29.938l-13.18,67.824h-32l12.531-64.488c1.426-7.336,0.902-12.34-1.574-15.008
		s-7.746-4.004-15.805-4.004h-25.176l-16.227,83.5h-31.5L247.656,188.776z"/>
	<path fill="#00000E" d="M412.345,250.526c12.062,0,20.102,2.227,24.121,6.68c4.017,4.453,4.974,12.098,2.871,22.93
		c-2.195,11.281-6.421,19.333-12.688,24.156c-6.266,4.823-15.801,7.234-28.602,7.234h-19.312l11.854-61H412.345z M334.986,373.276
		h31.75l7.53-38.75h27.195c12,0,21.871-1.258,29.621-3.782c7.75-2.519,14.793-6.746,21.133-12.68
		c5.32-4.891,9.625-10.284,12.922-16.183c3.293-5.895,5.633-12.402,7.016-19.519c3.359-17.277,0.825-30.734-7.598-40.375
		c-8.422-9.641-21.82-14.461-40.188-14.461h-61.054L334.986,373.276z"/>
</g>
</svg>
